<svg width="32" height="32" viewBox="0 0 32 32" fill="none" xmlns="http://www.w3.org/2000/svg">
<path d="M14.2425 5.3335C12.4805 5.3335 10.758 5.856 9.29294 6.83494C7.82786 7.81388 6.68596 9.20528 6.01166 10.8332C5.33736 12.4611 5.16093 14.2524 5.50468 15.9806C5.84844 17.7088 6.69695 19.2962 7.9429 20.5422C9.18885 21.7881 10.7763 22.6366 12.5045 22.9804C14.2327 23.3241 16.024 23.1477 17.6519 22.4734C19.2798 21.7991 20.6712 20.6572 21.6501 19.1921C22.6291 17.727 23.1516 16.0046 23.1516 14.2425C23.1514 11.8798 22.2128 9.6138 20.542 7.94306C18.8713 6.27232 16.6053 5.33365 14.2425 5.3335Z" stroke="white" stroke-width="2.2" stroke-miterlimit="10"/>
<path d="M20.8887 20.8887L26.6664 26.6664" stroke="white" stroke-width="2.2" stroke-miterlimit="10" stroke-linecap="round"/>
</svg>
