<svg width="36" height="36" viewBox="0 0 36 36" fill="none" xmlns="http://www.w3.org/2000/svg">
<path d="M16.8163 8.36768H8.40353C7.76604 8.36768 7.15466 8.62092 6.70389 9.07169C6.25312 9.52246 5.99988 10.1338 5.99988 10.7713V27.5969C5.99988 28.2343 6.25312 28.8457 6.70389 29.2965C7.15466 29.7473 7.76604 30.0005 8.40353 30.0005H25.2291C25.8665 30.0005 26.4779 29.7473 26.9287 29.2965C27.3795 28.8457 27.6327 28.2343 27.6327 27.5969V19.1841" stroke="#E12DFF" stroke-width="2.2" stroke-linecap="round" stroke-linejoin="round"/>
<path d="M25.83 6.56459C26.3081 6.08647 26.9565 5.81787 27.6327 5.81787C28.3089 5.81787 28.9573 6.08647 29.4354 6.56459C29.9136 7.0427 30.1822 7.69117 30.1822 8.36732C30.1822 9.04348 29.9136 9.69194 29.4354 10.1701L18.0181 21.5874L13.2108 22.7892L14.4126 17.9819L25.83 6.56459Z" stroke="#E12DFF" stroke-width="2.2" stroke-linecap="round" stroke-linejoin="round"/>
</svg>
