<svg width="36" height="36" viewBox="0 0 36 36" fill="none" xmlns="http://www.w3.org/2000/svg">
<path d="M7.626 6.9695C7.45189 6.9695 7.2849 7.03867 7.16178 7.16178C7.03867 7.2849 6.9695 7.45189 6.9695 7.626V14.191C6.9695 14.555 7.2633 14.8488 7.626 14.8488H14.191C14.2773 14.849 14.3628 14.8321 14.4426 14.7992C14.5224 14.7663 14.595 14.718 14.6561 14.657C14.7172 14.596 14.7656 14.5236 14.7987 14.4438C14.8318 14.3641 14.8488 14.2786 14.8488 14.1923V7.626C14.849 7.53968 14.8321 7.45417 14.7992 7.37437C14.7663 7.29457 14.718 7.22204 14.657 7.16094C14.596 7.09984 14.5236 7.05137 14.4438 7.0183C14.3641 6.98522 14.2786 6.9682 14.1923 6.9682L7.626 6.9695ZM14.191 19.1817C14.8875 19.1817 15.5554 19.4584 16.0479 19.9508C16.5403 20.4433 16.817 21.1112 16.817 21.8077V28.3727C16.8172 28.7177 16.7494 29.0593 16.6175 29.378C16.4856 29.6968 16.2922 29.9864 16.0483 30.2304C15.8045 30.4744 15.5149 30.6679 15.1962 30.8C14.8775 30.932 14.536 31 14.191 31H7.626C6.92954 31 6.26161 30.7233 5.76914 30.2309C5.27667 29.7384 5 29.0705 5 28.374V21.809C5 21.1125 5.27667 20.4446 5.76914 19.9521C6.26161 19.4597 6.92954 19.183 7.626 19.183L14.191 19.1817ZM28.374 19.1817C28.719 19.1817 29.0605 19.2497 29.3792 19.3817C29.6979 19.5138 29.9875 19.7073 30.2313 19.9513C30.4752 20.1953 30.6686 20.4849 30.8005 20.8037C30.9324 21.1224 31.0002 21.464 31 21.809V28.374C31 29.0705 30.7233 29.7384 30.2309 30.2309C29.7384 30.7233 29.0705 31 28.374 31H21.809C21.1125 31 20.4446 30.7233 19.9521 30.2309C19.4597 29.7384 19.183 29.0705 19.183 28.374V21.809C19.183 21.1125 19.4597 20.4446 19.9521 19.9521C20.4446 19.4597 21.1125 19.183 21.809 19.183L28.374 19.1817ZM14.191 21.1512H7.626C7.45189 21.1512 7.2849 21.2204 7.16178 21.3435C7.03867 21.4666 6.9695 21.6336 6.9695 21.8077V28.3727C6.9695 28.7367 7.2633 29.0305 7.626 29.0305H14.191C14.2773 29.0307 14.3628 29.0138 14.4426 28.9809C14.5224 28.948 14.595 28.8997 14.6561 28.8387C14.7172 28.7777 14.7656 28.7053 14.7987 28.6255C14.8318 28.5458 14.8488 28.4603 14.8488 28.374V21.809C14.849 21.7227 14.8321 21.6372 14.7992 21.5574C14.7663 21.4776 14.718 21.405 14.657 21.3439C14.596 21.2828 14.5236 21.2344 14.4438 21.2013C14.3641 21.1682 14.2773 21.1512 14.191 21.1512ZM28.374 21.1512H21.809C21.7227 21.151 21.6372 21.1679 21.5574 21.2008C21.4776 21.2337 21.405 21.282 21.3439 21.343C21.2828 21.404 21.2344 21.4764 21.2013 21.5562C21.1682 21.6359 21.1512 21.7214 21.1512 21.8077V28.3727C21.1512 28.7367 21.445 29.0305 21.8077 29.0305H28.3727C28.459 29.0307 28.5445 29.0138 28.6243 28.9809C28.7041 28.948 28.7767 28.8997 28.8378 28.8387C28.8989 28.7777 28.9473 28.7053 28.9804 28.6255C29.0135 28.5458 29.0305 28.4603 29.0305 28.374V21.809C29.0307 21.7227 29.0138 21.6372 28.9809 21.5574C28.948 21.4776 28.8997 21.405 28.8387 21.3439C28.7777 21.2828 28.7053 21.2344 28.6255 21.2013C28.5458 21.1682 28.4603 21.1512 28.374 21.1512ZM14.191 5C14.8875 5 15.5554 5.27667 16.0479 5.76914C16.5403 6.26161 16.817 6.92954 16.817 7.626V14.191C16.817 14.8875 16.5403 15.5554 16.0479 16.0479C15.5554 16.5403 14.8875 16.817 14.191 16.817H7.626C6.92954 16.817 6.26161 16.5403 5.76914 16.0479C5.27667 15.5554 5 14.8875 5 14.191V7.626C5 6.92954 5.27667 6.26161 5.76914 5.76914C6.26161 5.27667 6.92954 5 7.626 5H14.191ZM28.374 5C29.0705 5 29.7384 5.27667 30.2309 5.76914C30.7233 6.26161 31 6.92954 31 7.626V14.191C31 14.8875 30.7233 15.5554 30.2309 16.0479C29.7384 16.5403 29.0705 16.817 28.374 16.817H21.809C21.1125 16.817 20.4446 16.5403 19.9521 16.0479C19.4597 15.5554 19.183 14.8875 19.183 14.191V7.626C19.183 6.92954 19.4597 6.26161 19.9521 5.76914C20.4446 5.27667 21.1125 5 21.809 5H28.374ZM28.374 6.9695H21.809C21.7227 6.96933 21.6372 6.98618 21.5574 7.0191C21.4776 7.05202 21.405 7.10035 21.3439 7.16132C21.2828 7.2223 21.2344 7.29473 21.2013 7.37447C21.1682 7.4542 21.1512 7.53968 21.1512 7.626V14.191C21.1512 14.555 21.445 14.8488 21.8077 14.8488H28.3727C28.459 14.849 28.5445 14.8321 28.6243 14.7992C28.7041 14.7663 28.7767 14.718 28.8378 14.657C28.8989 14.596 28.9473 14.5236 28.9804 14.4438C29.0135 14.3641 29.0305 14.2786 29.0305 14.1923V7.626C29.0307 7.53968 29.0138 7.45417 28.9809 7.37437C28.948 7.29457 28.8997 7.22204 28.8387 7.16094C28.7777 7.09984 28.7053 7.05137 28.6255 7.0183C28.5458 6.98522 28.4603 6.9695 28.374 6.9695Z" fill="#E12DFF"/>
</svg>
