<svg width="36" height="36" viewBox="0 0 36 36" fill="none" xmlns="http://www.w3.org/2000/svg">
<path d="M26.82 10.5V10.68H27H28.5C29.6457 10.68 30.7445 11.1351 31.5547 11.9453C32.3649 12.7555 32.82 13.8543 32.82 15V27C32.82 28.1457 32.3649 29.2445 31.5547 30.0547C30.7445 30.8649 29.6457 31.32 28.5 31.32H7.5C6.35426 31.32 5.25546 30.8649 4.4453 30.0547C3.63514 29.2445 3.18 28.1457 3.18 27V9C3.18 7.85426 3.63514 6.75546 4.4453 5.9453C5.25546 5.13514 6.35426 4.68 7.5 4.68H22.5C23.6457 4.68 24.7445 5.13514 25.5547 5.9453C26.3649 6.75546 26.82 7.85426 26.82 9V10.5ZM24 10.68H24.18V10.5V9C24.18 8.55444 24.003 8.12712 23.6879 7.81206C23.3729 7.497 22.9456 7.32 22.5 7.32H7.5C7.05444 7.32 6.62712 7.497 6.31206 7.81206C5.997 8.12712 5.82 8.55444 5.82 9C5.82 9.44556 5.997 9.87288 6.31206 10.1879C6.62712 10.503 7.05444 10.68 7.5 10.68H24ZM30 22.68H30.18V22.5V19.5V19.32H30H28.5C28.0544 19.32 27.6271 19.497 27.3121 19.8121C26.997 20.1271 26.82 20.5544 26.82 21C26.82 21.4456 26.997 21.8729 27.3121 22.1879C27.6271 22.503 28.0544 22.68 28.5 22.68H30ZM30 16.68H30.18V16.5V15C30.18 14.5544 30.003 14.1271 29.6879 13.8121C29.3729 13.497 28.9456 13.32 28.5 13.32H7.5L7.49973 13.32C7.00932 13.3207 6.52236 13.2379 6.05973 13.0752L5.82 12.9909V13.245V27C5.82 27.4456 5.997 27.8729 6.31206 28.1879C6.62712 28.503 7.05444 28.68 7.5 28.68H28.5C28.9456 28.68 29.3729 28.503 29.6879 28.1879C30.003 27.8729 30.18 27.4456 30.18 27V25.5V25.32H30H28.5C27.3543 25.32 26.2555 24.8649 25.4453 24.0547C24.6351 23.2445 24.18 22.1457 24.18 21C24.18 19.8543 24.6351 18.7555 25.4453 17.9453C26.2555 17.1351 27.3543 16.68 28.5 16.68H30Z" fill="#E12DFF" stroke="#4D1C55" stroke-width="0.36"/>
</svg>
